<svg width="512" height="512" viewBox="0 0 512 512" fill="none" xmlns="http://www.w3.org/2000/svg">
<path d="M373.364 133.068L310.032 133.052C308.185 133.052 306.516 134.168 305.813 135.874C305.103 137.58 305.492 139.54 306.798 140.852L330.642 164.695L165.251 330.966L141.428 307.143C140.122 305.838 138.156 305.449 136.45 306.153C134.744 306.861 133.634 308.526 133.634 310.373L133.628 373.693C133.628 376.217 135.669 378.259 138.194 378.259L201.525 378.274C203.373 378.274 205.041 377.159 205.744 375.454C206.454 373.746 206.065 371.786 204.759 370.475L180.936 346.652L306.944 219.724L346.306 180.36L370.129 204.183C371.435 205.489 373.401 205.878 375.107 205.174C376.813 204.465 377.923 202.802 377.923 200.955L377.929 137.634C377.93 135.11 375.888 133.068 373.364 133.068Z" fill="#FBFBFB" fill-opacity="0.8"/>
<path d="M396.314 89.6H115.688C101.279 89.6 89.6006 101.278 89.6006 115.687V396.313C89.6006 410.722 101.279 422.4 115.688 422.4H396.315C410.723 422.4 422.401 410.722 422.401 396.313V115.687C422.401 101.278 410.723 89.6 396.314 89.6ZM400.214 396.313C400.214 398.463 398.465 400.213 396.314 400.213H115.688C113.537 400.213 111.787 398.463 111.787 396.313V115.687C111.787 113.536 113.537 111.786 115.688 111.786H396.315C398.465 111.786 400.214 113.536 400.214 115.687V396.313H400.214Z" fill="#FBFBFB" fill-opacity="0.8"/>
</svg>
